# xmcd
#
# Track frame offsets: 
#        150
#        21712
#        39862
#        64724
#        88011
#        111261
#        129411
#        150727
#        169702
#        191753
#        208928
#        227415
#        243727
#
# Disc length: 3499 seconds
#
# Revision: 0
# Processed by: cddbd v1.5.2PL0 Copyright (c) Steve Scherf et al.
# Submitted via: ExactAudioCopy v1.0b3
#
DISCID=b20da90d
DTITLE=Rob Berry - Dust Bin
DYEAR=2011
DGENRE=Blues
TTITLE0=Some Say
TTITLE1=Everyday I got the Blues
TTITLE2=Bittersweet Symphony
TTITLE3=The King in Your Head
TTITLE4=Wish you were Here
TTITLE5=Hurt
TTITLE6=Never Look Back
TTITLE7=When I Turn
TTITLE8=Born on the Bayou
TTITLE9=Little Wing
TTITLE10=Sun is Shining
TTITLE11=Woman Man Blues
TTITLE12=Straturday
EXTD=
EXTT0=
EXTT1=
EXTT2=
EXTT3=
EXTT4=
EXTT5=
EXTT6=
EXTT7=
EXTT8=
EXTT9=
EXTT10=
EXTT11=
EXTT12=
PLAYORDER=
